<?xml version="1.0" encoding="UTF-8" standalone="no"?>
<!-- Creator: CorelDRAW X7 -->

<svg
   xmlns:dc="http://purl.org/dc/elements/1.1/"
   xmlns:cc="http://creativecommons.org/ns#"
   xmlns:rdf="http://www.w3.org/1999/02/22-rdf-syntax-ns#"
   xmlns:svg="http://www.w3.org/2000/svg"
   xmlns="http://www.w3.org/2000/svg"
   xmlns:sodipodi="http://sodipodi.sourceforge.net/DTD/sodipodi-0.dtd"
   xmlns:inkscape="http://www.inkscape.org/namespaces/inkscape"
   xml:space="preserve"
   width="117.57999mm"
   height="43.360001mm"
   version="1.1"
   style="clip-rule:evenodd;fill-rule:evenodd;image-rendering:optimizeQuality;shape-rendering:geometricPrecision;text-rendering:geometricPrecision"
   viewBox="0 0 11758 4336.0001"
   id="svg50"
   sodipodi:docname="newimpact-logo-white-.svg"
   inkscape:version="0.92.4 (5da689c313, 2019-01-14)"><metadata
   id="metadata54"><rdf:RDF><cc:Work
       rdf:about=""><dc:format>image/svg+xml</dc:format><dc:type
         rdf:resource="http://purl.org/dc/dcmitype/StillImage" /><dc:title></dc:title></cc:Work></rdf:RDF></metadata><sodipodi:namedview
   pagecolor="#ffffff"
   bordercolor="#666666"
   borderopacity="1"
   objecttolerance="10"
   gridtolerance="10"
   guidetolerance="10"
   inkscape:pageopacity="0"
   inkscape:pageshadow="2"
   inkscape:window-width="1920"
   inkscape:window-height="1001"
   id="namedview52"
   showgrid="false"
   inkscape:pagecheckerboard="true"
   showborder="false"
   inkscape:zoom="0.87673612"
   inkscape:cx="452.22046"
   inkscape:cy="-286.47173"
   inkscape:window-x="-9"
   inkscape:window-y="-9"
   inkscape:window-maximized="1"
   inkscape:current-layer="svg50"
   fit-margin-left="-0.2"
   fit-margin-top="0"
   fit-margin-right="0"
   fit-margin-bottom="0" />
 <defs
   id="defs35">
  <style
   type="text/css"
   id="style33">
   <![CDATA[
    .fil0 {fill:none}
    .fil1 {fill:#27A5D5}
    .fil2 {fill:white}
   ]]>
  </style>
 <clipPath
   clipPathUnits="userSpaceOnUse"
   id="clipPath40"><rect
     id="rect42"
     width="12342.892"
     height="4617.2676"
     x="5914.9307"
     y="9868.2773"
     style="stroke-width:26.45833397" /></clipPath><clipPath
   clipPathUnits="userSpaceOnUse"
   id="clipPath44"><rect
     id="rect46"
     width="12342.892"
     height="4617.2676"
     x="5914.9307"
     y="9868.2773"
     style="stroke-width:26.45833397" /></clipPath></defs>
 <g
   id="Layer_x0020_1"
   clip-path="url(#clipPath44)"
   transform="translate(-20718.01,-10386.139)">
  <metadata
   id="CorelCorpID_0Corel-Layer" />
  <polygon
   class="fil0"
   points="0,24384 24384,24384 24384,0 0,0 "
   id="polygon38"
   style="fill:none" />
 </g>
 <g
   id="Layer_x0020_2"
   clip-path="url(#clipPath40)"
   transform="translate(-6323,-10024)">
  <metadata
   id="CorelCorpID_1Corel-Layer" />
  <g
   id="_861934016">
   <path
   class="fil1"
   d="m 6306,11708 h 515 v -1092 c 66,-78 167,-135 287,-135 197,0 275,102 275,383 v 844 h 518 v -993 c 0,-488 -174,-688 -608,-688 -197,0 -379,77 -493,170 v -128 h -494 z m 3593,-820 c 0,-505 -281,-864 -843,-864 -500,0 -859,341 -859,861 0,524 318,859 874,859 398,0 643,-135 790,-341 l -318,-267 c -101,129 -260,195 -427,195 -228,0 -359,-105 -401,-296 h 1181 c 3,-42 3,-114 3,-147 z m -843,-455 c 236,0 335,156 344,291 h -688 c 42,-216 188,-291 344,-291 z m 2815,-364 -233,827 -341,-827 h -251 l -341,819 -228,-819 h -532 l 562,1639 h 284 l 377,-860 386,860 h 284 l 560,-1639 z"
   id="path42"
   inkscape:connector-curvature="0"
   style="fill:#27a5d5" />
   <path
   class="fil2"
   d="m 6303,13831 h 518 v -1639 h -518 z m 2968,-1684 c -233,0 -427,78 -577,200 -90,-137 -236,-200 -452,-200 -182,0 -362,51 -517,173 v -128 h -494 v 1639 h 515 v -1095 c 84,-90 191,-131 290,-131 176,0 254,104 254,335 v 891 h 509 v -987 c 0,-39 0,-75 -3,-111 74,-87 164,-128 290,-128 176,0 257,101 257,341 v 885 h 518 v -987 c 0,-494 -180,-697 -590,-697 z m 973,2213 h 506 v -667 c 113,141 296,177 439,177 473,0 775,-338 775,-859 0,-526 -305,-864 -754,-864 -158,0 -338,45 -460,161 v -116 h -506 z m 814,-942 c -135,0 -252,-54 -317,-182 v -461 c 59,-111 191,-173 326,-173 215,0 365,140 365,406 0,255 -141,410 -374,410 z m 1927,452 c 143,0 332,-36 448,-177 v 138 h 497 v -1639 h -509 v 116 c -119,-116 -299,-161 -457,-161 -452,0 -757,338 -757,864 0,521 302,859 778,859 z m 131,-452 c -236,0 -377,-155 -377,-410 0,-266 153,-406 365,-406 138,0 269,62 329,173 v 461 c -66,128 -185,182 -317,182 z m 2017,446 c 335,0 589,-135 736,-338 l -353,-311 c -63,98 -189,188 -359,188 -236,0 -392,-155 -392,-401 0,-233 159,-386 389,-386 152,0 278,78 347,192 l 356,-311 c -141,-207 -395,-341 -736,-341 -559,0 -879,362 -879,855 0,518 323,853 891,853 z m 1622,9 c 203,0 308,-18 395,-45 v -434 c -93,42 -189,51 -243,51 -137,0 -179,-60 -179,-209 v -599 h 425 v -445 h -425 v -500 l -512,98 v 402 h -212 v 445 h 212 v 694 c 0,386 183,542 539,542 z"
   id="path44"
   inkscape:connector-curvature="0"
   style="fill:#ffffff" />
   <path
   class="fil1"
   d="m 17765,13240 c 174,0 316,141 316,316 0,174 -142,316 -316,316 -175,0 -316,-142 -316,-316 0,-175 141,-316 316,-316 z"
   id="path46"
   inkscape:connector-curvature="0"
   style="fill:#27a5d5" />
  </g>
 </g>
</svg>