<svg id="Layer_1" data-name="Layer 1" xmlns="http://www.w3.org/2000/svg" viewBox="0 0 77.49 18.17"><defs><style>.cls-1{fill:#00ade9;}.cls-2{fill:#fff;}</style></defs><title>winwin-logo-white</title><path class="cls-1" d="M100.21,73.68l1,5.17c.27,1.3.52,2.72.73,4.17h0c.26-1.45.62-2.9.93-4.14l1.35-5.2h3.1l1.27,5c.34,1.43.68,2.85.93,4.3h.06c.18-1.45.44-2.87.72-4.32l1.09-5h3.85l-3.88,12.65h-3.7l-1.19-4.45c-.31-1.24-.54-2.36-.8-3.93h0a27.86,27.86,0,0,1-.83,3.93l-1.27,4.45h-3.7L96.2,73.68Z" transform="translate(-96.2 -68.16)"/><path class="cls-1" d="M122.75,77.71c0-1.57,0-2.92-.1-4h3.41l.19,1.73h.07a4.64,4.64,0,0,1,3.91-2c2.59,0,4.53,1.71,4.53,5.44v7.5h-3.93v-7c0-1.63-.57-2.74-2-2.74a2.11,2.11,0,0,0-2,1.47,2.88,2.88,0,0,0-.15,1v7.3h-3.94Z" transform="translate(-96.2 -68.16)"/><rect class="cls-1" x="20.48" y="5.51" width="3.93" height="12.66"/><path class="cls-1" d="M157.56,72.12a2,2,0,1,0,0-4,2,2,0,1,0,0,4Z" transform="translate(-96.2 -68.16)"/><path class="cls-2" d="M139.15,73.68l1,5.17c.26,1.3.52,2.72.73,4.17h.05c.26-1.45.62-2.9.93-4.14l1.34-5.2h3.11l1.27,5c.33,1.43.67,2.85.93,4.3h0c.18-1.45.44-2.87.72-4.32l1.09-5h3.86l-3.88,12.65h-3.7l-1.2-4.45c-.3-1.24-.54-2.36-.8-3.93h0a27.86,27.86,0,0,1-.83,3.93l-1.26,4.45h-3.71l-3.67-12.65Z" transform="translate(-96.2 -68.16)"/><path class="cls-2" d="M118.65,68.16a2,2,0,1,0,0,4,2,2,0,1,0,0-4Z" transform="translate(-96.2 -68.16)"/><rect class="cls-2" x="59.42" y="5.51" width="3.93" height="12.66"/><path class="cls-2" d="M161.69,77.71c0-1.57-.05-2.92-.11-4H165l.18,1.73h.08a4.63,4.63,0,0,1,3.91-2c2.58,0,4.52,1.71,4.52,5.44v7.5h-3.93v-7c0-1.63-.57-2.74-2-2.74a2.12,2.12,0,0,0-2,1.47,2.88,2.88,0,0,0-.15,1v7.3h-3.93Z" transform="translate(-96.2 -68.16)"/></svg>