<svg height="1000" width="1000" xmlns="http://www.w3.org/2000/svg"><path d="M777.5 158.4h-86.9v32c0 17.7-16.6 32.1-34.3 32.1s-30.5-14.4-30.5-32.1v-32H374.1v32c0 17.7-12.8 32.1-30.4 32.1s-34.3-14.4-34.3-32.1v-32h-87c-35.2 0-64 28.8-64 64.1v555.1c0 35.2 28.8 64 64 64h555.1c35.3 0 64.1-28.8 64.1-64V222.5c0-35.2-28.8-64.1-64.1-64.1zM339.9 672.2c-17.7 0-32.1-14.3-32.1-32s14.4-32 32.1-32c17.7 0 32 14.3 32 32s-14.3 32-32 32zm0-106.7c-17.7 0-32.1-14.4-32.1-32.1s14.4-32 32.1-32c17.7 0 32 14.4 32 32s-14.3 32.1-32 32.1zm0-106.8c-17.7 0-32.1-14.3-32.1-32s14.4-32 32.1-32c17.7 0 32 14.3 32 32s-14.3 32-32 32zm106.7 213.5c-17.7 0-32-14.3-32-32s14.3-32 32-32 32.1 14.3 32.1 32-14.4 32-32.1 32zm0-106.7c-17.7 0-32-14.4-32-32.1s14.3-32 32-32 32.1 14.4 32.1 32-14.4 32.1-32.1 32.1zm0-106.8c-17.7 0-32-14.3-32-32s14.3-32 32-32 32.1 14.3 32.1 32-14.4 32-32.1 32zm106.8 213.5c-17.7 0-32.1-14.3-32.1-32s14.4-32 32.1-32c17.7 0 32 14.3 32 32s-14.3 32-32 32zm0-106.7c-17.7 0-32.1-14.4-32.1-32.1s14.4-32 32.1-32c17.7 0 32 14.4 32 32s-14.3 32.1-32 32.1zm0-106.8c-17.7 0-32.1-14.3-32.1-32s14.4-32 32.1-32c17.7 0 32 14.3 32 32s-14.3 32-32 32zm106.7 106.8c-17.7 0-32-14.4-32-32.1s14.3-32 32-32 32.1 14.4 32.1 32-14.4 32.1-32.1 32.1zm0-106.8c-17.7 0-32-14.3-32-32s14.3-32 32-32 32.1 14.3 32.1 32-14.4 32-32.1 32z"/></svg>