<svg height="1000" width="1000" xmlns="http://www.w3.org/2000/svg"><path d="M500 766.9c-3.7 0-6.7-3-6.7-6.7v-53.3a6.7 6.7 0 0 1 13.4 0v53.3c0 3.7-3 6.7-6.7 6.7zm0-146.7c-3.7 0-6.7-3-6.7-6.7 0-58.3 3.8-82.6 45.8-126.6 74.5-78.5 87.6-99.5 87.6-140.1 0-57.9-54.8-100-130.2-100-71.3 0-124.9 42.4-136.6 107.9-.7 3.6-4.1 6-7.8 5.4s-6-4.1-5.3-7.8c12.8-72.2 71.6-118.8 149.7-118.8 83.2 0 143.5 47.6 143.5 113.3 0 46.8-18.3 72.4-91.2 149.2-38.9 40.7-42.1 62-42.1 117.5 0 3.7-3 6.7-6.7 6.7zm0-606.7c268.3 0 486.7 218.3 486.7 486.7S768.3 986.9 500 986.9c-268.3 0-486.7-218.4-486.7-486.7S231.7 13.5 500 13.5zm0-13.3C223.8.2 0 224 0 500.2s223.8 500 500 500 500-223.9 500-500S776.2.2 500 .2z"/></svg>