<svg height="1000" width="1000" xmlns="http://www.w3.org/2000/svg"><path d="M1000 542v-83.3l-208.3-69.6c-2.2-5.7-4.5-11.4-7-16.9l98.6-196.1-58.9-58.9-196.8 98.2c-5.4-2.4-10.9-4.6-16.5-6.8L541.7.4h-83.4l-69.5 208.2c-5.5 2.2-11 4.3-16.5 6.8L176 117.2l-58.9 58.9 98.1 196.2c-2.5 5.4-4.7 10.9-6.9 16.6L-.1 458.7V542L208 611.1c2.2 5.7 4.4 11.3 6.9 16.9l-97.8 196.4 59 58.9 195.7-98.2c5.5 2.5 11.2 4.8 17 7l69.4 207.5h83.4l68.8-207.3c6-2.2 11.8-4.6 17.6-7.2l195.8 97.7 58.9-59-98-195.4c2.6-5.8 4.9-11.6 7.2-17.5l208-68.9zM500 729.5c-126.6 0-229.2-102.6-229.2-229.1S373.4 271.2 500 271.2s229.1 102.6 229.1 229.2S626.5 729.5 500 729.5z"/></svg>