<svg height="1000" width="1000" xmlns="http://www.w3.org/2000/svg"><path d="M146.4 853.6c195.3 195.2 511.9 195.2 707.1 0s195.3-511.9 0-707.1c-195.2-195.3-511.8-195.3-707.1 0-195.2 195.2-195.2 511.8 0 707.1zm235.7-530.4L500 441.1l117.8-117.9c16.3-16.2 42.7-16.2 59 0s16.2 42.7 0 59L558.9 500l118.4 118.4c16.3 16.3 16.3 42.7 0 58.9s-42.6 16.3-58.9 0L500 558.9 380.5 678.4c-16.2 16.2-42.6 16.2-58.9 0s-16.3-42.7 0-58.9L441.1 500 323.2 382.1c-16.2-16.2-16.2-42.6 0-58.9 16.3-16.2 42.7-16.2 58.9 0z"/></svg>