<?xml version="1.0" encoding="iso-8859-1"?>
<!-- Generator: Adobe Illustrator 19.0.0, SVG Export Plug-In . SVG Version: 6.00 Build 0)  -->
<svg version="1.1" id="Capa_1" xmlns="http://www.w3.org/2000/svg" xmlns:xlink="http://www.w3.org/1999/xlink" x="0px" y="0px"
	 viewBox="0 0 511.999 511.999" style="enable-background:new 0 0 511.999 511.999;" xml:space="preserve">
<g>
	<g>
		<path d="M437.018,74.98C388.667,26.629,324.38,0,255.999,0C187.62,0,123.333,26.629,74.98,74.98
			C26.629,123.332,0,187.62,0,255.999s26.629,132.667,74.98,181.019c48.352,48.352,112.639,74.98,181.019,74.98
			c68.381,0,132.667-26.629,181.019-74.98c48.352-48.352,74.98-112.638,74.98-181.019S485.371,123.332,437.018,74.98z
			 M479.696,240.132H379.031c-1.707-60.392-13.128-116.857-32.606-160.41c-6.296-14.077-13.28-26.409-20.821-36.916
			C410.476,70.585,473.204,147.719,479.696,240.132z M255.999,31.735c21.734,0,44.134,22.213,61.455,60.944
			c17.727,39.637,28.168,91.51,29.832,147.454H164.712v-0.001c1.664-55.943,12.105-107.817,29.832-147.454
			C211.867,53.949,234.266,31.735,255.999,31.735z M186.397,42.806c-7.542,10.506-14.526,22.839-20.821,36.916
			c-19.479,43.553-30.899,100.017-32.606,160.41H32.304C38.795,147.719,101.523,70.584,186.397,42.806z M32.304,271.867h100.665
			c1.707,60.392,13.128,116.857,32.606,160.41c6.296,14.077,13.28,26.41,20.821,36.916
			C101.523,441.415,38.795,364.281,32.304,271.867z M255.999,480.265c-21.733,0-44.133-22.214-61.455-60.944
			c-17.727-39.637-28.168-91.51-29.832-147.454h182.574c-1.664,55.943-12.105,107.817-29.832,147.454
			C300.133,458.051,277.734,480.265,255.999,480.265z M325.603,469.194c7.542-10.506,14.526-22.839,20.821-36.916
			c19.479-43.553,30.899-100.017,32.606-160.41h100.665C473.204,364.281,410.476,441.415,325.603,469.194z"/>
	</g>
</g>
<g>
</g>
<g>
</g>
<g>
</g>
<g>
</g>
<g>
</g>
<g>
</g>
<g>
</g>
<g>
</g>
<g>
</g>
<g>
</g>
<g>
</g>
<g>
</g>
<g>
</g>
<g>
</g>
<g>
</g>
</svg>
