<svg height="1000" width="1000" xmlns="http://www.w3.org/2000/svg"><path d="M500 915C270 915 85 727.5 85 500 85 270 272.5 85 500 85c230 0 415 187.5 415 415 0 230-185 415-415 415zm0-915C225 0 0 225 0 500s225 500 500 500 500-225 500-500S775 0 500 0zm5 750c-22.5 0-40-20-40-40s20-40 40-40c22.5 0 40 20 40 40 2.5 20-17.5 40-40 40zm95-265l-50 47.5v30c0 22.5-20 40-40 40s-40-20-40-40V535c0-25 10-47.5 27.5-62.5l50-47.5c10-10 12.5-22.5 12.5-37.5 0-30-25-55-55-55s-55 25-55 55c0 22.5-20 40-40 40s-40-20-40-40c0-75 62.5-137.5 137.5-137.5S645 312.5 645 387.5c-7.5 37.5-20 72.5-45 97.5z"/></svg>