<svg id="Layer_1" data-name="Layer 1" xmlns="http://www.w3.org/2000/svg" xmlns:xlink="http://www.w3.org/1999/xlink" viewBox="0 0 2.66 10.69"><defs><style>.cls-1{fill:#fff;}.cls-2{fill:#333;}.cls-3{mask:url(#mask);}</style><mask id="mask" x="0" y="0" width="2.66" height="10.69" maskUnits="userSpaceOnUse"><g id="mask-2"><path id="path-1" class="cls-1" d="M1.33,2.69A1.28,1.28,0,0,1,.39,2.3a1.3,1.3,0,0,1-.39-1A1.3,1.3,0,0,1,.39.39,1.28,1.28,0,0,1,1.33,0a1.29,1.29,0,0,1,.94.39,1.3,1.3,0,0,1,.39,1,1.3,1.3,0,0,1-.39,1A1.29,1.29,0,0,1,1.33,2.69ZM1.33,4a1.29,1.29,0,0,1,.94.39,1.36,1.36,0,0,1,0,1.91,1.29,1.29,0,0,1-.94.39A1.28,1.28,0,0,1,.39,6.3a1.36,1.36,0,0,1,0-1.91A1.28,1.28,0,0,1,1.33,4Zm0,4a1.29,1.29,0,0,1,.94.39,1.36,1.36,0,0,1,0,1.91,1.29,1.29,0,0,1-.94.39,1.28,1.28,0,0,1-.94-.39,1.36,1.36,0,0,1,0-1.91A1.28,1.28,0,0,1,1.33,8Z"/></g></mask></defs><title>menu</title><g id="Symbols"><g id="Icon_More-Vertical" data-name="Icon/More-Vertical"><g id="Group"><g id="Mask-2-2" data-name="Mask"><path id="path-1-2" data-name="path-1" class="cls-2" d="M1.33,2.69A1.28,1.28,0,0,1,.39,2.3a1.3,1.3,0,0,1-.39-1A1.3,1.3,0,0,1,.39.39,1.28,1.28,0,0,1,1.33,0a1.29,1.29,0,0,1,.94.39,1.3,1.3,0,0,1,.39,1,1.3,1.3,0,0,1-.39,1A1.29,1.29,0,0,1,1.33,2.69ZM1.33,4a1.29,1.29,0,0,1,.94.39,1.36,1.36,0,0,1,0,1.91,1.29,1.29,0,0,1-.94.39A1.28,1.28,0,0,1,.39,6.3a1.36,1.36,0,0,1,0-1.91A1.28,1.28,0,0,1,1.33,4Zm0,4a1.29,1.29,0,0,1,.94.39,1.36,1.36,0,0,1,0,1.91,1.29,1.29,0,0,1-.94.39,1.28,1.28,0,0,1-.94-.39,1.36,1.36,0,0,1,0-1.91A1.28,1.28,0,0,1,1.33,8Z"/></g></g></g></g></svg>