<?xml version="1.0" encoding="UTF-8"?>
<svg width="20px" height="20px" viewBox="0 0 20 20" version="1.1" xmlns="http://www.w3.org/2000/svg" xmlns:xlink="http://www.w3.org/1999/xlink">
    <!-- Generator: Sketch 50.2 (55047) - http://www.bohemiancoding.com/sketch -->
    <title>Type something</title>
    <desc>Created with Sketch.</desc>
    <defs></defs>
    <g id="Chat_Entry-point" stroke="none" stroke-width="1" fill="none" fill-rule="evenodd">
        <g id="29_egain_create_new_entrypoint_notification-modal-2" transform="translate(-1126.000000, -77.000000)" fill="#FFFFFF">
            <g id="Group-4" transform="translate(201.000000, 49.000000)">
                <g id="Header">
                    <path d="M933.898438,37.7285156 L925.166016,28.9960938 C925.055338,28.8854161 925,28.7470711 925,28.5810547 C925,28.4150382 925.055338,28.2766933 925.166016,28.1660156 C925.276693,28.055338 925.415038,28 925.581055,28 C925.747071,28 925.885416,28.055338 925.996094,28.1660156 L934.728516,36.8984375 L943.460938,28.1660156 C943.571615,28.055338 943.70996,28 943.875977,28 C944.041993,28 944.180338,28.055338 944.291016,28.1660156 C944.401693,28.2766933 944.457031,28.4150382 944.457031,28.5810547 C944.457031,28.7470711 944.401693,28.8854161 944.291016,28.9960938 L935.558594,37.7285156 L944.291016,46.4609375 C944.401693,46.5716151 944.457031,46.7099601 944.457031,46.8759766 C944.457031,47.041993 944.401693,47.180338 944.291016,47.2910156 C944.180338,47.4016933 944.041993,47.4570312 943.875977,47.4570312 C943.70996,47.4570312 943.571615,47.4016933 943.460938,47.2910156 L934.728516,38.5585938 L925.996094,47.2910156 C925.885416,47.4016933 925.747071,47.4570312 925.581055,47.4570312 C925.415038,47.4570312 925.276693,47.4016933 925.166016,47.2910156 C925.055338,47.180338 925,47.041993 925,46.8759766 C925,46.7099601 925.055338,46.5716151 925.166016,46.4609375 L933.898438,37.7285156 Z" id="Type-something"></path>
                </g>
            </g>
        </g>
    </g>
</svg>