<svg id="Layer_1" data-name="Layer 1" xmlns="http://www.w3.org/2000/svg" viewBox="0 0 11.37 14"><defs><style>.cls-1{fill:#4d4d4d;}</style></defs><title>pinterest</title><g id="Organization-Detail-"><g id="Organization-Details"><g id="pinterest-_1_" data-name="pinterest-(1)"><path id="Shape" class="cls-1" d="M5.88,0C2,0,0,2.46,0,5.14A3.76,3.76,0,0,0,1.81,8.43c.17.07.26,0,.3-.12s.17-.69.25-1a.24.24,0,0,0-.06-.24,3.21,3.21,0,0,1-.67-1.94,3.77,3.77,0,0,1,4-3.68A3.44,3.44,0,0,1,9.37,4.94c0,2.3-1.22,3.89-2.8,3.89A1.26,1.26,0,0,1,5.25,7.29,16.74,16.74,0,0,0,6,4.47a1.09,1.09,0,0,0-1.12-1.2A1.85,1.85,0,0,0,3.26,5.33a3,3,0,0,0,.26,1.26s-.88,3.56-1,4.22a9.64,9.64,0,0,0,.06,3.11.1.1,0,0,0,.17,0,10.84,10.84,0,0,0,1.45-2.73l.56-2a2.4,2.4,0,0,0,2,1c2.68,0,4.61-2.35,4.61-5.28S9,0,5.88,0Z" transform="translate(0)"/></g></g></g></svg>