<svg height="1000" width="1000" xmlns="http://www.w3.org/2000/svg"><path d="M750.1 66.9c-20-11.5-45.5-4.7-57 15.2s-4.7 45.4 15.2 56.9c128.5 74.4 208.4 212.7 208.4 361 0 229.7-186.9 416.7-416.7 416.7S83.3 729.7 83.3 500c0-147.4 79.2-285.3 206.6-359.9 19.8-11.6 26.5-37.1 14.9-57-11.7-19.8-37.1-26.5-57-14.9C95 157.6 0 323.1 0 500c0 275.7 224.3 500 500 500s500-224.3 500-500c0-177.9-95.8-343.9-249.9-433.1zM500 500c23 0 41.7-18.7 41.7-41.7V41.7C541.7 18.7 523 0 500 0s-41.7 18.7-41.7 41.7v416.6c0 23 18.7 41.7 41.7 41.7z"/></svg>