<svg id="Layer_1" data-name="Layer 1" xmlns="http://www.w3.org/2000/svg" viewBox="0 0 14 11.38"><defs><style>.cls-1{fill:#4d4d4d;}</style></defs><title>twitter</title><g id="Organization-Detail-"><g id="Organization-Details"><g id="twitter-_1_" data-name="twitter-(1)"><path id="Shape" class="cls-1" d="M14,1.35a5.85,5.85,0,0,1-1.65.45A2.86,2.86,0,0,0,13.61.21a5.83,5.83,0,0,1-1.82.7,2.87,2.87,0,0,0-5,2,2.84,2.84,0,0,0,.07.66A8.12,8.12,0,0,1,1,.52,3,3,0,0,0,.58,2,2.86,2.86,0,0,0,1.86,4.36,2.86,2.86,0,0,1,.56,4V4a2.88,2.88,0,0,0,2.3,2.82A3,3,0,0,1,2.11,7a2.5,2.5,0,0,1-.55,0,2.9,2.9,0,0,0,2.69,2A5.75,5.75,0,0,1,.69,10.13a5.22,5.22,0,0,1-.69,0,8.08,8.08,0,0,0,4.4,1.29,8.12,8.12,0,0,0,8.17-8.17c0-.13,0-.25,0-.37A5.83,5.83,0,0,0,14,1.35Z"/></g></g></g></svg>