<svg id="Layer_1" data-name="Layer 1" xmlns="http://www.w3.org/2000/svg" viewBox="0 0 17 17.46"><defs><style>.cls-1{fill:#4d4d4d;}</style></defs><title>upload-1</title><path class="cls-1" d="M15,.5H3A2.39,2.39,0,0,0,.5,2.75v10.5A2.39,2.39,0,0,0,3,15.5H6a.5.5,0,0,0,0-1H3a1.39,1.39,0,0,1-1.5-1.25V2.75A1.39,1.39,0,0,1,3,1.5H15a1.39,1.39,0,0,1,1.5,1.25v10.5A1.39,1.39,0,0,1,15,14.5H12a.5.5,0,0,0,0,1h3a2.39,2.39,0,0,0,2.5-2.25V2.75A2.39,2.39,0,0,0,15,.5Z" transform="translate(-0.5 -0.5)"/><path class="cls-1" d="M12,11.5a.47.47,0,0,0,.35-.15.48.48,0,0,0,0-.7l-3-3a.48.48,0,0,0-.7,0l-3,3a.49.49,0,0,0,.7.7L8,9.71V17a1,1,0,0,0,2,0V9.71l1.65,1.64A.47.47,0,0,0,12,11.5ZM9,9H9V8.71H9Z" transform="translate(-0.5 -0.5)"/></svg>